<svg xmlns="http://www.w3.org/2000/svg" viewBox="0 0 1200 1180" role="img" aria-labelledby="t d">
  <title id="t">Organograma do sistema CECOPEL 2.0</title>
  <desc id="d">Hierarquia da plataforma com Escritório e Cliente, módulos existentes e novos, fluxo de liquidação e camada de infraestrutura.</desc>

  <defs>
    <style>
      .lbl-xs { font: 600 10px 'Inter','Helvetica Neue',sans-serif; fill: #475569; letter-spacing: 0.6px; }
      .lbl-sm { font: 600 11px 'Inter','Helvetica Neue',sans-serif; fill: #0f172a; }
      .lbl-md { font: 700 13px 'Inter','Helvetica Neue',sans-serif; fill: #0f172a; }
      .lbl-lg { font: 700 16px 'Inter','Helvetica Neue',sans-serif; fill: #0f172a; }
      .lbl-xl { font: 800 22px 'Inter','Helvetica Neue',sans-serif; fill: #0f172a; }
      .lbl-hero { font: 800 28px 'Inter','Helvetica Neue',sans-serif; fill: #ffffff; letter-spacing: 0.4px; }
      .lbl-sub-hero { font: 500 13px 'Inter','Helvetica Neue',sans-serif; fill: #cbd5e1; letter-spacing: 0.5px; }
      .lbl-white { font: 700 13px 'Inter','Helvetica Neue',sans-serif; fill: #ffffff; }
      .lbl-white-sm { font: 500 11px 'Inter','Helvetica Neue',sans-serif; fill: #cbd5e1; }
      .lbl-muted { font: 500 11px 'Inter','Helvetica Neue',sans-serif; fill: #64748b; }
      .lbl-cap { font: 700 9px 'Inter','Helvetica Neue',sans-serif; fill: #ffffff; letter-spacing: 1.3px; text-transform: uppercase; }
      .lbl-cap-dk { font: 700 10px 'Inter','Helvetica Neue',sans-serif; letter-spacing: 1.3px; text-transform: uppercase; }
      .ln { stroke: #cbd5e1; stroke-width: 1.5; fill: none; }
      .ln-thick { stroke: #94a3b8; stroke-width: 2; fill: none; }
      .ln-flow { stroke: #f59e0b; stroke-width: 2.5; fill: none; stroke-dasharray: 6 4; }
    </style>
    <marker id="arr" viewBox="0 0 10 10" refX="9" refY="5" markerWidth="6" markerHeight="6" orient="auto-start-reverse">
      <path d="M 0 0 L 10 5 L 0 10 z" fill="#94a3b8"/>
    </marker>
    <marker id="arr-flow" viewBox="0 0 10 10" refX="9" refY="5" markerWidth="7" markerHeight="7" orient="auto-start-reverse">
      <path d="M 0 0 L 10 5 L 0 10 z" fill="#f59e0b"/>
    </marker>
  </defs>

  <rect x="0" y="0" width="1200" height="110" fill="#0a0f1e"/>
  <rect x="0" y="106" width="1200" height="4" fill="#10b981"/>
  <text x="600" y="50" text-anchor="middle" class="lbl-hero">CECOPEL 2.0</text>
  <text x="600" y="78" text-anchor="middle" class="lbl-sub-hero">PLATAFORMA SaaS · ESCRITÓRIOS DE CONTABILIDADE</text>

  <path class="ln-thick" d="M 600 110 L 600 150 M 280 150 L 280 165 M 920 150 L 920 165 M 280 150 L 920 150"/>

  <rect x="80" y="165" width="400" height="62" rx="10" fill="#0f172a"/>
  <text x="100" y="190" class="lbl-cap" fill="#10b981">ESCRITÓRIO · BACKOFFICE</text>
  <text x="100" y="212" class="lbl-white">cecopel-gestao SPA + Dashboards</text>

  <rect x="720" y="165" width="400" height="62" rx="10" fill="#0f172a"/>
  <text x="740" y="190" class="lbl-cap" fill="#10b981">CLIENTE · FRONTEND</text>
  <text x="740" y="212" class="lbl-white">Portal Web + App PWA</text>

  <path class="ln" d="M 280 227 L 280 255"/>
  <path class="ln" d="M 920 227 L 920 255"/>

  <rect x="40" y="255" width="480" height="298" rx="12" fill="#ffffff" stroke="#e2e8f0" stroke-width="1.5"/>
  <rect x="40" y="255" width="480" height="36" rx="12" fill="#f1f5f9"/>
  <rect x="40" y="279" width="480" height="12" fill="#f1f5f9"/>
  <text x="60" y="278" class="lbl-md">11 MÓDULOS ATUAIS  +  NOVOS</text>

  <text x="60" y="313" class="lbl-cap-dk" fill="#059669">EXISTENTES (já em produção)</text>

  <g font-family="Inter,sans-serif" font-size="11" font-weight="600">
    <rect x="60" y="322" width="92" height="26" rx="13" fill="#ecfdf5" stroke="#10b981"/>
    <text x="106" y="339" text-anchor="middle" fill="#065f46">Kanban</text>
    <rect x="160" y="322" width="92" height="26" rx="13" fill="#ecfdf5" stroke="#10b981"/>
    <text x="206" y="339" text-anchor="middle" fill="#065f46">Empresas</text>
    <rect x="260" y="322" width="92" height="26" rx="13" fill="#ecfdf5" stroke="#10b981"/>
    <text x="306" y="339" text-anchor="middle" fill="#065f46">Premiação</text>
    <rect x="360" y="322" width="100" height="26" rx="13" fill="#ecfdf5" stroke="#10b981"/>
    <text x="410" y="339" text-anchor="middle" fill="#065f46">IRPF</text>

    <rect x="60" y="356" width="92" height="26" rx="13" fill="#ecfdf5" stroke="#10b981"/>
    <text x="106" y="373" text-anchor="middle" fill="#065f46">Societário</text>
    <rect x="160" y="356" width="92" height="26" rx="13" fill="#ecfdf5" stroke="#10b981"/>
    <text x="206" y="373" text-anchor="middle" fill="#065f46">Comercial</text>
    <rect x="260" y="356" width="92" height="26" rx="13" fill="#ecfdf5" stroke="#10b981"/>
    <text x="306" y="373" text-anchor="middle" fill="#065f46">Análise</text>
    <rect x="360" y="356" width="100" height="26" rx="13" fill="#ecfdf5" stroke="#10b981"/>
    <text x="410" y="373" text-anchor="middle" fill="#065f46">RH + Entrevistas</text>

    <rect x="60" y="390" width="92" height="26" rx="13" fill="#ecfdf5" stroke="#10b981"/>
    <text x="106" y="407" text-anchor="middle" fill="#065f46">Auditoria</text>
    <rect x="160" y="390" width="100" height="26" rx="13" fill="#f1f5f9" stroke="#94a3b8" stroke-dasharray="4 3"/>
    <text x="210" y="407" text-anchor="middle" fill="#94a3b8" text-decoration="line-through">Norma IA</text>
    <rect x="268" y="390" width="116" height="26" rx="13" fill="#ecfdf5" stroke="#10b981"/>
    <text x="326" y="407" text-anchor="middle" fill="#065f46">Clientes Custom (7)</text>
  </g>

  <line x1="60" y1="432" x2="500" y2="432" stroke="#e2e8f0" stroke-dasharray="3 3"/>

  <text x="60" y="453" class="lbl-cap-dk" fill="#b45309">NOVOS · CECOPEL 2.0</text>

  <g font-family="Inter,sans-serif" font-size="11" font-weight="700">
    <rect x="60" y="463" width="200" height="32" rx="8" fill="#fef3c7" stroke="#f59e0b" stroke-width="1.5"/>
    <text x="160" y="484" text-anchor="middle" fill="#7c2d12">Módulo Liquidação</text>
    <rect x="270" y="463" width="220" height="32" rx="8" fill="#fef3c7" stroke="#f59e0b" stroke-width="1.5"/>
    <text x="380" y="484" text-anchor="middle" fill="#7c2d12">4 Dashboards Gerenciais</text>

    <g font-size="9" font-weight="600">
      <rect x="60" y="505" width="100" height="22" rx="11" fill="#ffffff" stroke="#fbbf24"/>
      <text x="110" y="520" text-anchor="middle" fill="#92400e">Prazos / SLA</text>
      <rect x="166" y="505" width="100" height="22" rx="11" fill="#ffffff" stroke="#fbbf24"/>
      <text x="216" y="520" text-anchor="middle" fill="#92400e">Comunicação</text>
      <rect x="272" y="505" width="106" height="22" rx="11" fill="#ffffff" stroke="#fbbf24"/>
      <text x="325" y="520" text-anchor="middle" fill="#92400e">Rentabilidade</text>
      <rect x="384" y="505" width="106" height="22" rx="11" fill="#ffffff" stroke="#fbbf24"/>
      <text x="437" y="520" text-anchor="middle" fill="#92400e">Produtividade</text>
    </g>
  </g>

  <rect x="680" y="255" width="480" height="298" rx="12" fill="#ffffff" stroke="#e2e8f0" stroke-width="1.5"/>
  <rect x="680" y="255" width="480" height="36" rx="12" fill="#f1f5f9"/>
  <rect x="680" y="279" width="480" height="12" fill="#f1f5f9"/>
  <text x="700" y="278" class="lbl-md">PORTAL WEB  +  APP PWA white-label</text>

  <text x="700" y="313" class="lbl-cap-dk" fill="#059669">EXISTENTE</text>
  <rect x="700" y="322" width="140" height="28" rx="8" fill="#ecfdf5" stroke="#10b981"/>
  <text x="770" y="340" text-anchor="middle" class="lbl-sm" fill="#065f46">portal.html (Supabase)</text>

  <text x="860" y="313" class="lbl-cap-dk" fill="#b45309">NOVO</text>
  <rect x="860" y="322" width="280" height="28" rx="8" fill="#fef3c7" stroke="#f59e0b" stroke-width="1.5"/>
  <text x="1000" y="340" text-anchor="middle" class="lbl-sm" fill="#7c2d12">App PWA · Vite + React + Tailwind</text>

  <text x="700" y="378" class="lbl-cap-dk" fill="#475569">TELAS PRINCIPAIS</text>
  <g font-family="Inter,sans-serif" font-size="11" font-weight="600">
    <rect x="700" y="388" width="86" height="26" rx="13" fill="#eef2ff" stroke="#6366f1"/>
    <text x="743" y="405" text-anchor="middle" fill="#3730a3">Home</text>
    <rect x="794" y="388" width="100" height="26" rx="13" fill="#eef2ff" stroke="#6366f1"/>
    <text x="844" y="405" text-anchor="middle" fill="#3730a3">Obrigações</text>
    <rect x="902" y="388" width="106" height="26" rx="13" fill="#eef2ff" stroke="#6366f1"/>
    <text x="955" y="405" text-anchor="middle" fill="#3730a3">Solicitações</text>
    <rect x="1016" y="388" width="124" height="26" rx="13" fill="#eef2ff" stroke="#6366f1"/>
    <text x="1078" y="405" text-anchor="middle" fill="#3730a3">Documentos</text>

    <rect x="700" y="422" width="106" height="26" rx="13" fill="#eef2ff" stroke="#6366f1"/>
    <text x="753" y="439" text-anchor="middle" fill="#3730a3">Mensagens</text>
    <rect x="814" y="422" width="126" height="26" rx="13" fill="#eef2ff" stroke="#6366f1"/>
    <text x="877" y="439" text-anchor="middle" fill="#3730a3">Avaliação NPS</text>
  </g>

  <text x="700" y="478" class="lbl-cap-dk" fill="#475569">CANAIS DE NOTIFICAÇÃO</text>
  <g font-family="Inter,sans-serif" font-size="11" font-weight="600">
    <rect x="700" y="488" width="120" height="28" rx="8" fill="#f1f5f9" stroke="#cbd5e1"/>
    <text x="760" y="506" text-anchor="middle" fill="#334155">Push · OneSignal</text>
    <rect x="828" y="488" width="120" height="28" rx="8" fill="#f1f5f9" stroke="#cbd5e1"/>
    <text x="888" y="506" text-anchor="middle" fill="#334155">Email · Resend</text>
    <rect x="956" y="488" width="184" height="28" rx="8" fill="#f1f5f9" stroke="#cbd5e1" stroke-dasharray="4 3"/>
    <text x="1048" y="506" text-anchor="middle" fill="#64748b">WhatsApp (opcional)</text>
  </g>

  <path class="ln" d="M 280 553 L 280 580 L 600 580 L 600 600"/>
  <path class="ln" d="M 920 553 L 920 580 L 600 580"/>

  <rect x="40" y="600" width="1120" height="184" rx="14" fill="#fff7ed" stroke="#f59e0b" stroke-width="2"/>
  <rect x="40" y="600" width="1120" height="34" rx="14" fill="#f59e0b"/>
  <rect x="40" y="622" width="1120" height="12" fill="#f59e0b"/>
  <text x="60" y="624" class="lbl-cap" fill="#ffffff">FLUXO DE LIQUIDAÇÃO · O CORAÇÃO DO CECOPEL 2.0</text>

  <g>
    <rect x="68" y="660" width="180" height="100" rx="10" fill="#ffffff" stroke="#fbbf24"/>
    <circle cx="98" cy="685" r="13" fill="#f59e0b"/>
    <text x="98" y="690" text-anchor="middle" class="lbl-white">1</text>
    <text x="118" y="690" class="lbl-md">Pasta monitorada</text>
    <text x="80" y="712" class="lbl-muted">OneDrive / Drive / Dropbox</text>
    <text x="80" y="728" class="lbl-muted">(opcional: pasta local</text>
    <text x="80" y="744" class="lbl-muted">via app Tauri)</text>

    <path class="ln-flow" d="M 250 710 L 285 710" marker-end="url(#arr-flow)"/>

    <rect x="288" y="660" width="180" height="100" rx="10" fill="#ffffff" stroke="#fbbf24"/>
    <circle cx="318" cy="685" r="13" fill="#f59e0b"/>
    <text x="318" y="690" text-anchor="middle" class="lbl-white">2</text>
    <text x="338" y="690" class="lbl-md">Robô identifica</text>
    <text x="300" y="712" class="lbl-muted">CNPJ + tipo de obrigação</text>
    <text x="300" y="728" class="lbl-muted">+ competência (via regex</text>
    <text x="300" y="744" class="lbl-muted">configurável + parse SPED)</text>

    <path class="ln-flow" d="M 470 710 L 505 710" marker-end="url(#arr-flow)"/>

    <rect x="508" y="660" width="180" height="100" rx="10" fill="#ffffff" stroke="#fbbf24"/>
    <circle cx="538" cy="685" r="13" fill="#f59e0b"/>
    <text x="538" y="690" text-anchor="middle" class="lbl-white">3</text>
    <text x="558" y="690" class="lbl-md">Anexa entrega</text>
    <text x="520" y="712" class="lbl-muted">Upload Supabase Storage</text>
    <text x="520" y="728" class="lbl-muted">Cria registro em "entregas"</text>
    <text x="520" y="744" class="lbl-muted">Status: aguardando_cliente</text>

    <path class="ln-flow" d="M 690 710 L 725 710" marker-end="url(#arr-flow)"/>

    <rect x="728" y="660" width="180" height="100" rx="10" fill="#ffffff" stroke="#fbbf24"/>
    <circle cx="758" cy="685" r="13" fill="#f59e0b"/>
    <text x="758" y="690" text-anchor="middle" class="lbl-white">4</text>
    <text x="778" y="690" class="lbl-md">Notifica cliente</text>
    <text x="740" y="712" class="lbl-muted">Push (OneSignal) + email</text>
    <text x="740" y="728" class="lbl-muted">(Resend) + opcional</text>
    <text x="740" y="744" class="lbl-muted">WhatsApp</text>

    <path class="ln-flow" d="M 910 710 L 945 710" marker-end="url(#arr-flow)"/>

    <rect x="948" y="660" width="184" height="100" rx="10" fill="#ecfdf5" stroke="#10b981" stroke-width="2"/>
    <circle cx="978" cy="685" r="13" fill="#10b981"/>
    <text x="978" y="690" text-anchor="middle" class="lbl-white">5</text>
    <text x="998" y="690" class="lbl-md" fill="#065f46">Cliente liquida</text>
    <text x="960" y="712" class="lbl-muted">App: baixa arquivo →</text>
    <text x="960" y="728" class="lbl-muted">"confirmar recebimento" →</text>
    <text x="960" y="744" class="lbl-muted">status: entregue ✓</text>
  </g>

  <path class="ln" d="M 600 784 L 600 814"/>

  <rect x="40" y="814" width="1120" height="118" rx="14" fill="#ffffff" stroke="#e2e8f0" stroke-width="1.5"/>
  <rect x="40" y="814" width="1120" height="34" rx="14" fill="#0f172a"/>
  <rect x="40" y="836" width="1120" height="12" fill="#0f172a"/>
  <text x="60" y="838" class="lbl-cap" fill="#10b981">CAMADA DE DADOS · 7 NOVAS TABELAS SUPABASE</text>

  <g font-family="Inter,sans-serif" font-size="11" font-weight="700">
    <rect x="60" y="870" width="148" height="44" rx="8" fill="#f8fafc" stroke="#cbd5e1"/>
    <text x="134" y="888" text-anchor="middle" fill="#0f172a">obrigacoes_catalogo</text>
    <text x="134" y="903" text-anchor="middle" class="lbl-muted">194 obrigações</text>
    <rect x="216" y="870" width="148" height="44" rx="8" fill="#f8fafc" stroke="#cbd5e1"/>
    <text x="290" y="888" text-anchor="middle" fill="#0f172a">obrigacao_empresa</text>
    <text x="290" y="903" text-anchor="middle" class="lbl-muted">vínculo N:N</text>
    <rect x="372" y="870" width="148" height="44" rx="8" fill="#f8fafc" stroke="#cbd5e1"/>
    <text x="446" y="888" text-anchor="middle" fill="#0f172a">entregas</text>
    <text x="446" y="903" text-anchor="middle" class="lbl-muted">instâncias mês</text>
    <rect x="528" y="870" width="148" height="44" rx="8" fill="#f8fafc" stroke="#cbd5e1"/>
    <text x="602" y="888" text-anchor="middle" fill="#0f172a">entrega_arquivos</text>
    <text x="602" y="903" text-anchor="middle" class="lbl-muted">SPED, guias, PDFs</text>
    <rect x="684" y="870" width="148" height="44" rx="8" fill="#f8fafc" stroke="#cbd5e1"/>
    <text x="758" y="888" text-anchor="middle" fill="#0f172a">entrega_eventos</text>
    <text x="758" y="903" text-anchor="middle" class="lbl-muted">trilha completa</text>
    <rect x="840" y="870" width="148" height="44" rx="8" fill="#f8fafc" stroke="#cbd5e1"/>
    <text x="914" y="888" text-anchor="middle" fill="#0f172a">telemetria_tempo</text>
    <text x="914" y="903" text-anchor="middle" class="lbl-muted">para dashboards</text>
    <rect x="996" y="870" width="148" height="44" rx="8" fill="#f8fafc" stroke="#cbd5e1"/>
    <text x="1070" y="888" text-anchor="middle" fill="#0f172a">solicitacoes</text>
    <text x="1070" y="903" text-anchor="middle" class="lbl-muted">ticket + NPS</text>
  </g>

  <path class="ln" d="M 600 932 L 600 962"/>

  <rect x="40" y="962" width="1120" height="118" rx="14" fill="#1e293b"/>
  <text x="60" y="990" class="lbl-cap" fill="#10b981">INFRAESTRUTURA · STACK</text>

  <g font-family="Inter,sans-serif" font-size="11" font-weight="700">
    <rect x="60" y="1008" width="180" height="50" rx="10" fill="#0f172a" stroke="#475569"/>
    <text x="150" y="1030" text-anchor="middle" fill="#ffffff">Supabase</text>
    <text x="150" y="1048" text-anchor="middle" fill="#94a3b8" font-weight="500">DB · Auth · Storage · Edge</text>
    <rect x="248" y="1008" width="180" height="50" rx="10" fill="#0f172a" stroke="#475569"/>
    <text x="338" y="1030" text-anchor="middle" fill="#ffffff">Netlify</text>
    <text x="338" y="1048" text-anchor="middle" fill="#94a3b8" font-weight="500">deploy contínuo</text>
    <rect x="436" y="1008" width="180" height="50" rx="10" fill="#0f172a" stroke="#475569"/>
    <text x="526" y="1030" text-anchor="middle" fill="#ffffff">OneSignal</text>
    <text x="526" y="1048" text-anchor="middle" fill="#94a3b8" font-weight="500">push até 10K free</text>
    <rect x="624" y="1008" width="180" height="50" rx="10" fill="#0f172a" stroke="#475569"/>
    <text x="714" y="1030" text-anchor="middle" fill="#ffffff">Resend</text>
    <text x="714" y="1048" text-anchor="middle" fill="#94a3b8" font-weight="500">email 3K/mês free</text>
    <rect x="812" y="1008" width="180" height="50" rx="10" fill="#0f172a" stroke="#475569"/>
    <text x="902" y="1030" text-anchor="middle" fill="#ffffff">Tauri</text>
    <text x="902" y="1048" text-anchor="middle" fill="#94a3b8" font-weight="500">app local cross-platform</text>
    <rect x="1000" y="1008" width="140" height="50" rx="10" fill="#0f172a" stroke="#475569"/>
    <text x="1070" y="1030" text-anchor="middle" fill="#ffffff">Stripe / Pagar.me</text>
    <text x="1070" y="1048" text-anchor="middle" fill="#94a3b8" font-weight="500">cobrança fase 5</text>
  </g>

  <g font-family="Inter,sans-serif" font-size="10" font-weight="600">
    <rect x="40" y="1110" width="1120" height="50" rx="10" fill="#f8fafc" stroke="#e2e8f0"/>
    <rect x="58" y="1126" width="14" height="14" rx="3" fill="#ecfdf5" stroke="#10b981"/>
    <text x="80" y="1138" fill="#475569">Existente · em produção</text>
    <rect x="240" y="1126" width="14" height="14" rx="3" fill="#fef3c7" stroke="#f59e0b" stroke-width="1.5"/>
    <text x="262" y="1138" fill="#475569">Novo · CECOPEL 2.0</text>
    <rect x="408" y="1126" width="14" height="14" rx="3" fill="#eef2ff" stroke="#6366f1"/>
    <text x="430" y="1138" fill="#475569">Frontend cliente</text>
    <rect x="554" y="1126" width="14" height="14" rx="3" fill="#0f172a"/>
    <text x="576" y="1138" fill="#475569">Infra / dados</text>
    <rect x="678" y="1126" width="14" height="14" rx="3" fill="#f1f5f9" stroke="#94a3b8" stroke-dasharray="3 2"/>
    <text x="700" y="1138" fill="#475569">Em pausa (Norma · WhatsApp)</text>
    <line x1="888" y1="1133" x2="918" y2="1133" stroke="#f59e0b" stroke-width="2" stroke-dasharray="6 4"/>
    <polygon points="916,1129 924,1133 916,1137" fill="#f59e0b"/>
    <text x="930" y="1138" fill="#475569">Fluxo de liquidação</text>
  </g>
</svg>
