<svg xmlns="http://www.w3.org/2000/svg" viewBox="0 0 1280 1480" role="img" aria-labelledby="t d">
  <title id="t">Organograma CECOPEL 2.0 — arquitetura de produção</title>
  <desc id="d">Quatro níveis de acesso, robô Tauri próprio, API Go, painéis Next.js, multi-tenancy via RLS.</desc>
  <defs>
    <style>
      .lbl-sm { font: 600 11px 'Inter',sans-serif; fill: #0f172a; }
      .lbl-md { font: 700 13px 'Inter',sans-serif; fill: #0f172a; }
      .lbl-lg { font: 700 16px 'Inter',sans-serif; fill: #0f172a; }
      .lbl-hero { font: 800 28px 'Inter',sans-serif; fill: #ffffff; letter-spacing: 0.4px; }
      .lbl-sub-hero { font: 500 13px 'Inter',sans-serif; fill: #cbd5e1; letter-spacing: 0.5px; }
      .lbl-white { font: 700 13px 'Inter',sans-serif; fill: #ffffff; }
      .lbl-muted { font: 500 11px 'Inter',sans-serif; fill: #64748b; }
      .lbl-cap { font: 700 9px 'Inter',sans-serif; fill: #ffffff; letter-spacing: 1.3px; text-transform: uppercase; }
      .lbl-tier { font: 800 11px 'Inter',sans-serif; letter-spacing: 1.5px; text-transform: uppercase; }
      .ln { stroke: #cbd5e1; stroke-width: 1.5; fill: none; }
      .ln-flow { stroke: #f59e0b; stroke-width: 2.5; fill: none; stroke-dasharray: 6 4; }
    </style>
    <marker id="arr-flow" viewBox="0 0 10 10" refX="9" refY="5" markerWidth="7" markerHeight="7" orient="auto-start-reverse">
      <path d="M 0 0 L 10 5 L 0 10 z" fill="#f59e0b"/>
    </marker>
  </defs>
  <rect x="0" y="0" width="1280" height="110" fill="#0a0f1e"/>
  <rect x="0" y="106" width="1280" height="4" fill="#10b981"/>
  <text x="640" y="50" text-anchor="middle" class="lbl-hero">CECOPEL 2.0 · ARQUITETURA DE PRODUÇÃO</text>
  <text x="640" y="78" text-anchor="middle" class="lbl-sub-hero">4 NÍVEIS DE ACESSO · STACK GO + TAURI + NEXT.JS + SUPABASE</text>

  <rect x="0" y="125" width="1280" height="225" fill="#fdf2f8" opacity="0.4"/>
  <text x="20" y="148" class="lbl-tier" fill="#9f1239">NÍVEL 1 · SUPER-ADMIN CECOPEL  (você)</text>
  <rect x="60" y="158" width="500" height="180" rx="12" fill="#ffffff" stroke="#be185d" stroke-width="2"/>
  <rect x="60" y="158" width="500" height="34" rx="12" fill="#be185d"/>
  <rect x="60" y="180" width="500" height="12" fill="#be185d"/>
  <text x="80" y="182" class="lbl-cap" fill="#ffffff">admin.cecopel.com.br · Next.js 14 + TypeScript</text>
  <text x="80" y="220" class="lbl-md">Painel global de gestão do SaaS</text>
  <g font-family="Inter,sans-serif" font-size="11" font-weight="600">
    <rect x="80" y="234" width="138" height="26" rx="6" fill="#fdf2f8" stroke="#f9a8d4"/><text x="149" y="251" text-anchor="middle" fill="#831843">Escritórios ativos</text>
    <rect x="226" y="234" width="138" height="26" rx="6" fill="#fdf2f8" stroke="#f9a8d4"/><text x="295" y="251" text-anchor="middle" fill="#831843">Habilitar módulos</text>
    <rect x="372" y="234" width="170" height="26" rx="6" fill="#fdf2f8" stroke="#f9a8d4"/><text x="457" y="251" text-anchor="middle" fill="#831843">Catálogo global obrigações</text>
    <rect x="80" y="268" width="138" height="26" rx="6" fill="#fdf2f8" stroke="#f9a8d4"/><text x="149" y="285" text-anchor="middle" fill="#831843">Planos &amp; preço</text>
    <rect x="226" y="268" width="138" height="26" rx="6" fill="#fdf2f8" stroke="#f9a8d4"/><text x="295" y="285" text-anchor="middle" fill="#831843">Telemetria MRR</text>
    <rect x="372" y="268" width="170" height="26" rx="6" fill="#fdf2f8" stroke="#f9a8d4"/><text x="457" y="285" text-anchor="middle" fill="#831843">Cobrança Stripe / Pagar.me</text>
    <rect x="80" y="302" width="284" height="26" rx="6" fill="#fdf2f8" stroke="#f9a8d4"/><text x="222" y="319" text-anchor="middle" fill="#831843">Auditoria global + logs operacionais</text>
    <rect x="372" y="302" width="170" height="26" rx="6" fill="#fdf2f8" stroke="#f9a8d4"/><text x="457" y="319" text-anchor="middle" fill="#831843">Suporte (impersonate)</text>
  </g>
  <rect x="600" y="158" width="620" height="180" rx="12" fill="#0f172a"/>
  <text x="620" y="182" class="lbl-cap" fill="#f9a8d4">KPIs PRINCIPAIS</text>
  <g font-family="Inter,sans-serif">
    <text x="620" y="216" fill="#ffffff" font-size="22" font-weight="800">MRR</text><text x="620" y="240" fill="#94a3b8" font-size="11">Monthly recurring revenue</text>
    <text x="780" y="216" fill="#ffffff" font-size="22" font-weight="800">Churn</text><text x="780" y="240" fill="#94a3b8" font-size="11">% escritórios saindo /mês</text>
    <text x="920" y="216" fill="#ffffff" font-size="22" font-weight="800">Activations</text><text x="920" y="240" fill="#94a3b8" font-size="11">trials → pagantes</text>
    <text x="1080" y="216" fill="#ffffff" font-size="22" font-weight="800">DAU/MAU</text><text x="1080" y="240" fill="#94a3b8" font-size="11">stickiness</text>
    <line x1="620" y1="260" x2="1200" y2="260" stroke="#334155"/>
    <text x="620" y="282" fill="#ffffff" font-size="13" font-weight="600">Entregas /mês</text><text x="620" y="298" fill="#94a3b8" font-size="11">volume processado pela plataforma</text>
    <text x="780" y="282" fill="#ffffff" font-size="13" font-weight="600">Storage usado</text><text x="780" y="298" fill="#94a3b8" font-size="11">arquivos SPED/guias acumulados</text>
    <text x="920" y="282" fill="#ffffff" font-size="13" font-weight="600">Tempo resposta API</text><text x="920" y="298" fill="#94a3b8" font-size="11">SLA técnico (p95)</text>
    <text x="1080" y="282" fill="#ffffff" font-size="13" font-weight="600">Robôs ativos</text><text x="1080" y="298" fill="#94a3b8" font-size="11">% escritórios c/ Tauri instalado</text>
    <text x="620" y="324" fill="#10b981" font-size="11" font-weight="700">↑ KPIs alimentados pela tabela org_telemetria (atualizada pelo backend Go)</text>
  </g>

  <rect x="0" y="362" width="1280" height="225" fill="#eef2ff" opacity="0.4"/>
  <text x="20" y="385" class="lbl-tier" fill="#3730a3">NÍVEL 2 · ADMIN DO ESCRITÓRIO  (dono / gestor do escritório cliente)</text>
  <rect x="60" y="395" width="580" height="180" rx="12" fill="#ffffff" stroke="#4f46e5" stroke-width="2"/>
  <rect x="60" y="395" width="580" height="34" rx="12" fill="#4f46e5"/>
  <rect x="60" y="417" width="580" height="12" fill="#4f46e5"/>
  <text x="80" y="419" class="lbl-cap" fill="#ffffff">app.cecopel.com.br/admin · Next.js (multi-tenant via subdomínio ou path)</text>
  <text x="80" y="457" class="lbl-md">O dono do escritório controla a casa dele</text>
  <g font-family="Inter,sans-serif" font-size="11" font-weight="600">
    <rect x="80" y="471" width="180" height="26" rx="6" fill="#eef2ff" stroke="#a5b4fc"/><text x="170" y="488" text-anchor="middle" fill="#312e81">Convidar colaboradores</text>
    <rect x="268" y="471" width="180" height="26" rx="6" fill="#eef2ff" stroke="#a5b4fc"/><text x="358" y="488" text-anchor="middle" fill="#312e81">Papéis (gerente/fiscal/etc)</text>
    <rect x="456" y="471" width="172" height="26" rx="6" fill="#eef2ff" stroke="#a5b4fc"/><text x="542" y="488" text-anchor="middle" fill="#312e81">Quais módulos cada um vê</text>
    <rect x="80" y="505" width="180" height="26" rx="6" fill="#eef2ff" stroke="#a5b4fc"/><text x="170" y="522" text-anchor="middle" fill="#312e81">Cadastro empresas-cliente</text>
    <rect x="268" y="505" width="180" height="26" rx="6" fill="#eef2ff" stroke="#a5b4fc"/><text x="358" y="522" text-anchor="middle" fill="#312e81">Selecionar obrigações</text>
    <rect x="456" y="505" width="172" height="26" rx="6" fill="#eef2ff" stroke="#a5b4fc"/><text x="542" y="522" text-anchor="middle" fill="#312e81">White-label (logo, cor)</text>
    <rect x="80" y="539" width="368" height="26" rx="6" fill="#eef2ff" stroke="#a5b4fc"/><text x="264" y="556" text-anchor="middle" fill="#312e81">Dashboards gerenciais (4) · prazos · comunicação · rentabilidade · produtividade</text>
    <rect x="456" y="539" width="172" height="26" rx="6" fill="#eef2ff" stroke="#a5b4fc"/><text x="542" y="556" text-anchor="middle" fill="#312e81">Fatura do escritório</text>
  </g>
  <rect x="680" y="395" width="540" height="180" rx="12" fill="#1e293b"/>
  <text x="700" y="419" class="lbl-cap" fill="#a5b4fc">PAINEL "MEU ESCRITÓRIO" — TELEMETRIA</text>
  <g font-family="Inter,sans-serif">
    <text x="700" y="453" fill="#ffffff" font-size="20" font-weight="800">Usuários ativos</text><text x="700" y="476" fill="#94a3b8" font-size="11">colaboradores logados últimos 7 dias</text>
    <text x="920" y="453" fill="#ffffff" font-size="20" font-weight="800">Empresas atendidas</text><text x="920" y="476" fill="#94a3b8" font-size="11">clientes do escritório cadastrados</text>
    <line x1="700" y1="497" x2="1200" y2="497" stroke="#334155"/>
    <text x="700" y="519" fill="#ffffff" font-size="13" font-weight="600">Entregas no mês</text><text x="700" y="535" fill="#94a3b8" font-size="11">processadas pelo robô + manuais</text>
    <text x="920" y="519" fill="#ffffff" font-size="13" font-weight="600">% no prazo</text><text x="920" y="535" fill="#94a3b8" font-size="11">SLA fiscal interno</text>
    <text x="700" y="558" fill="#ffffff" font-size="13" font-weight="600">Storage usado</text><text x="700" y="574" fill="#94a3b8" font-size="11">cota do plano contratado</text>
    <text x="920" y="558" fill="#ffffff" font-size="13" font-weight="600">Plano</text><text x="920" y="574" fill="#94a3b8" font-size="11">Free / Pro / Enterprise + uso vs limite</text>
  </g>

  <rect x="0" y="599" width="1280" height="160" fill="#ecfdf5" opacity="0.4"/>
  <text x="20" y="622" class="lbl-tier" fill="#065f46">NÍVEL 3 · COLABORADOR  (funcionários do escritório)</text>
  <rect x="60" y="632" width="1160" height="118" rx="12" fill="#ffffff" stroke="#10b981" stroke-width="2"/>
  <rect x="60" y="632" width="1160" height="34" rx="12" fill="#10b981"/>
  <rect x="60" y="654" width="1160" height="12" fill="#10b981"/>
  <text x="80" y="656" class="lbl-cap" fill="#ffffff">app.cecopel.com.br · cecopel-gestao SPA atual + novos módulos</text>
  <g font-family="Inter,sans-serif" font-size="11" font-weight="600">
    <rect x="80" y="688" width="92" height="28" rx="14" fill="#ecfdf5" stroke="#10b981"/><text x="126" y="706" text-anchor="middle" fill="#065f46">Kanban</text>
    <rect x="178" y="688" width="92" height="28" rx="14" fill="#ecfdf5" stroke="#10b981"/><text x="224" y="706" text-anchor="middle" fill="#065f46">Empresas</text>
    <rect x="276" y="688" width="92" height="28" rx="14" fill="#ecfdf5" stroke="#10b981"/><text x="322" y="706" text-anchor="middle" fill="#065f46">IRPF</text>
    <rect x="374" y="688" width="92" height="28" rx="14" fill="#ecfdf5" stroke="#10b981"/><text x="420" y="706" text-anchor="middle" fill="#065f46">Societário</text>
    <rect x="472" y="688" width="92" height="28" rx="14" fill="#ecfdf5" stroke="#10b981"/><text x="518" y="706" text-anchor="middle" fill="#065f46">Análise</text>
    <rect x="570" y="688" width="92" height="28" rx="14" fill="#ecfdf5" stroke="#10b981"/><text x="616" y="706" text-anchor="middle" fill="#065f46">RH</text>
    <rect x="668" y="688" width="92" height="28" rx="14" fill="#ecfdf5" stroke="#10b981"/><text x="714" y="706" text-anchor="middle" fill="#065f46">Premiação</text>
    <rect x="770" y="688" width="124" height="28" rx="14" fill="#fef3c7" stroke="#f59e0b" stroke-width="1.5"/><text x="832" y="706" text-anchor="middle" font-weight="700" fill="#7c2d12">Liquidação ★</text>
    <rect x="900" y="688" width="120" height="28" rx="14" fill="#fef3c7" stroke="#f59e0b" stroke-width="1.5"/><text x="960" y="706" text-anchor="middle" font-weight="700" fill="#7c2d12">Solicitações ★</text>
    <rect x="1026" y="688" width="124" height="28" rx="14" fill="#fef3c7" stroke="#f59e0b" stroke-width="1.5"/><text x="1088" y="706" text-anchor="middle" font-weight="700" fill="#7c2d12">Dashboards ★</text>
    <text x="80" y="738" class="lbl-muted">Acesso a cada chip é decidido pelo Admin do Escritório (Nível 2). Estrelas = novos módulos do CECOPEL 2.0.</text>
  </g>

  <rect x="0" y="769" width="1280" height="160" fill="#fff7ed" opacity="0.5"/>
  <text x="20" y="792" class="lbl-tier" fill="#9a3412">NÍVEL 4 · CLIENTE FINAL  (empresas atendidas pelo escritório)</text>
  <rect x="60" y="802" width="1160" height="118" rx="12" fill="#ffffff" stroke="#f97316" stroke-width="2"/>
  <rect x="60" y="802" width="1160" height="34" rx="12" fill="#f97316"/>
  <rect x="60" y="824" width="1160" height="12" fill="#f97316"/>
  <text x="80" y="826" class="lbl-cap" fill="#ffffff">app PWA · white-label · subdomínio personalizado opcional</text>
  <g font-family="Inter,sans-serif" font-size="11" font-weight="600">
    <rect x="80" y="858" width="120" height="28" rx="14" fill="#fff7ed" stroke="#f97316"/><text x="140" y="876" text-anchor="middle" fill="#9a3412">Home</text>
    <rect x="208" y="858" width="120" height="28" rx="14" fill="#fff7ed" stroke="#f97316"/><text x="268" y="876" text-anchor="middle" fill="#9a3412">Obrigações</text>
    <rect x="336" y="858" width="120" height="28" rx="14" fill="#fff7ed" stroke="#f97316"/><text x="396" y="876" text-anchor="middle" fill="#9a3412">Documentos</text>
    <rect x="464" y="858" width="120" height="28" rx="14" fill="#fff7ed" stroke="#f97316"/><text x="524" y="876" text-anchor="middle" fill="#9a3412">Solicitações</text>
    <rect x="592" y="858" width="120" height="28" rx="14" fill="#fff7ed" stroke="#f97316"/><text x="652" y="876" text-anchor="middle" fill="#9a3412">Mensagens</text>
    <rect x="720" y="858" width="120" height="28" rx="14" fill="#fff7ed" stroke="#f97316"/><text x="780" y="876" text-anchor="middle" fill="#9a3412">Avaliar (NPS)</text>
    <text x="80" y="908" class="lbl-muted">Recebe push (OneSignal) + email (Resend). Confirma liquidação em 1 toque.</text>
  </g>

  <rect x="40" y="950" width="600" height="220" rx="14" fill="#fff7ed" stroke="#f59e0b" stroke-width="2"/>
  <rect x="40" y="950" width="600" height="34" rx="14" fill="#f59e0b"/>
  <rect x="40" y="972" width="600" height="12" fill="#f59e0b"/>
  <text x="60" y="974" class="lbl-cap" fill="#ffffff">ROBÔ PRÓPRIO · TAURI 2.0 (Rust) · cross-platform</text>
  <text x="60" y="1010" class="lbl-md">Bin único ~5–8 MB para macOS, Windows, Linux</text>
  <g font-family="Inter,sans-serif" font-size="11">
    <rect x="60" y="1024" width="270" height="68" rx="8" fill="#ffffff" stroke="#fbbf24"/>
    <text x="72" y="1044" font-weight="700" fill="#7c2d12">Watcher nativo</text>
    <text x="72" y="1062" fill="#64748b">notify-rs / FSEvents (macOS)</text>
    <text x="72" y="1078" fill="#64748b">ReadDirectoryChangesW (Win)</text>
    <rect x="340" y="1024" width="280" height="68" rx="8" fill="#ffffff" stroke="#fbbf24"/>
    <text x="352" y="1044" font-weight="700" fill="#7c2d12">Parser proprietário</text>
    <text x="352" y="1062" fill="#64748b">SPED EFD / DCTFWeb / DIRBI / etc</text>
    <text x="352" y="1078" fill="#64748b">extrai CNPJ + competência + tipo</text>
    <rect x="60" y="1100" width="270" height="62" rx="8" fill="#ffffff" stroke="#fbbf24"/>
    <text x="72" y="1120" font-weight="700" fill="#7c2d12">Upload TLS direto à API Go</text>
    <text x="72" y="1138" fill="#64748b">multipart, retries, hash SHA-256</text>
    <text x="72" y="1154" fill="#64748b">JWT do Supabase Auth</text>
    <rect x="340" y="1100" width="280" height="62" rx="8" fill="#ffffff" stroke="#fbbf24"/>
    <text x="352" y="1120" font-weight="700" fill="#7c2d12">Auto-updater + tray icon</text>
    <text x="352" y="1138" fill="#64748b">atualizações silenciosas, log local</text>
    <text x="352" y="1154" fill="#64748b">configuração via webview React</text>
  </g>
  <path class="ln-flow" d="M 640 1060 L 700 1060 L 700 1240" marker-end="url(#arr-flow)"/>
  <text x="660" y="1145" class="lbl-muted" transform="rotate(-90 660 1145)">arquivo + metadados</text>

  <rect x="680" y="950" width="560" height="220" rx="14" fill="#dbeafe" stroke="#2563eb" stroke-width="2"/>
  <rect x="680" y="950" width="560" height="34" rx="14" fill="#2563eb"/>
  <rect x="680" y="972" width="560" height="12" fill="#2563eb"/>
  <text x="700" y="974" class="lbl-cap" fill="#ffffff">API GO · Fiber framework · single binary ~10 MB RAM</text>
  <text x="700" y="1010" class="lbl-md">Coração que serve TODOS os painéis</text>
  <g font-family="Inter,sans-serif" font-size="11">
    <rect x="700" y="1024" width="160" height="42" rx="8" fill="#ffffff" stroke="#93c5fd"/>
    <text x="712" y="1042" font-weight="700" fill="#1e3a8a">REST /api/*</text>
    <text x="712" y="1058" fill="#64748b">CRUD + filtros + paginação</text>
    <rect x="870" y="1024" width="160" height="42" rx="8" fill="#ffffff" stroke="#93c5fd"/>
    <text x="882" y="1042" font-weight="700" fill="#1e3a8a">WebSocket</text>
    <text x="882" y="1058" fill="#64748b">notificações em tempo real</text>
    <rect x="1040" y="1024" width="190" height="42" rx="8" fill="#ffffff" stroke="#93c5fd"/>
    <text x="1052" y="1042" font-weight="700" fill="#1e3a8a">Workers / cron</text>
    <text x="1052" y="1058" fill="#64748b">lembretes, alertas, billing</text>
    <rect x="700" y="1074" width="160" height="42" rx="8" fill="#ffffff" stroke="#93c5fd"/>
    <text x="712" y="1092" font-weight="700" fill="#1e3a8a">JWT validation</text>
    <text x="712" y="1108" fill="#64748b">Supabase JWT + org claim</text>
    <rect x="870" y="1074" width="160" height="42" rx="8" fill="#ffffff" stroke="#93c5fd"/>
    <text x="882" y="1092" font-weight="700" fill="#1e3a8a">Rate limit</text>
    <text x="882" y="1108" fill="#64748b">por org_id + por usuário</text>
    <rect x="1040" y="1074" width="190" height="42" rx="8" fill="#ffffff" stroke="#93c5fd"/>
    <text x="1052" y="1092" font-weight="700" fill="#1e3a8a">Webhooks Stripe</text>
    <text x="1052" y="1108" fill="#64748b">cobrança e ciclo de assinatura</text>
    <rect x="700" y="1124" width="530" height="38" rx="8" fill="#1e3a8a"/>
    <text x="965" y="1148" text-anchor="middle" fill="#ffffff" font-weight="700">Hospedado em Fly.io OU Railway · auto-scale + edge regions Brasil</text>
  </g>

  <rect x="40" y="1190" width="1200" height="170" rx="14" fill="#0f172a"/>
  <rect x="40" y="1190" width="1200" height="34" rx="14" fill="#0a0f1e"/>
  <text x="60" y="1214" class="lbl-cap" fill="#10b981">DADOS · SUPABASE POSTGRES com ROW LEVEL SECURITY por org_id</text>
  <text x="60" y="1248" class="lbl-md" fill="#ffffff">Tabelas-chave para multi-tenancy &amp; cobrança</text>
  <g font-family="Inter,sans-serif" font-size="11" font-weight="700">
    <rect x="60" y="1262" width="148" height="44" rx="8" fill="#1e293b" stroke="#475569"/>
    <text x="134" y="1280" text-anchor="middle" fill="#ffffff">orgs</text>
    <text x="134" y="1296" text-anchor="middle" fill="#94a3b8" font-weight="500">escritórios contábeis</text>
    <rect x="216" y="1262" width="148" height="44" rx="8" fill="#1e293b" stroke="#475569"/>
    <text x="290" y="1280" text-anchor="middle" fill="#ffffff">org_membros</text>
    <text x="290" y="1296" text-anchor="middle" fill="#94a3b8" font-weight="500">user × org × role</text>
    <rect x="372" y="1262" width="148" height="44" rx="8" fill="#1e293b" stroke="#475569"/>
    <text x="446" y="1280" text-anchor="middle" fill="#ffffff">org_modulos</text>
    <text x="446" y="1296" text-anchor="middle" fill="#94a3b8" font-weight="500">quais features ativas</text>
    <rect x="528" y="1262" width="148" height="44" rx="8" fill="#1e293b" stroke="#475569"/>
    <text x="602" y="1280" text-anchor="middle" fill="#ffffff">planos</text>
    <text x="602" y="1296" text-anchor="middle" fill="#94a3b8" font-weight="500">free/pro/enterprise</text>
    <rect x="684" y="1262" width="148" height="44" rx="8" fill="#1e293b" stroke="#475569"/>
    <text x="758" y="1280" text-anchor="middle" fill="#ffffff">assinaturas</text>
    <text x="758" y="1296" text-anchor="middle" fill="#94a3b8" font-weight="500">Stripe / Pagar.me</text>
    <rect x="840" y="1262" width="148" height="44" rx="8" fill="#1e293b" stroke="#475569"/>
    <text x="914" y="1280" text-anchor="middle" fill="#ffffff">empresas</text>
    <text x="914" y="1296" text-anchor="middle" fill="#94a3b8" font-weight="500">clientes do escritório</text>
    <rect x="996" y="1262" width="220" height="44" rx="8" fill="#1e293b" stroke="#475569"/>
    <text x="1106" y="1280" text-anchor="middle" fill="#ffffff">obrigacoes / entregas / arquivos / eventos</text>
    <text x="1106" y="1296" text-anchor="middle" fill="#94a3b8" font-weight="500">núcleo de liquidação</text>
  </g>
  <text x="60" y="1330" class="lbl-muted" fill="#cbd5e1">RLS = cada query do backend Go injeta org_id automaticamente. Vazamento entre escritórios é impossível por design.</text>
  <text x="60" y="1346" class="lbl-muted" fill="#cbd5e1">Storage: Supabase Storage (S3-compatible) com buckets isolados por org_id.</text>

  <g font-family="Inter,sans-serif" font-size="10" font-weight="600">
    <rect x="40" y="1390" width="1200" height="68" rx="10" fill="#f8fafc" stroke="#e2e8f0"/>
    <text x="60" y="1412" font-weight="700" fill="#0f172a">CORES POR NÍVEL</text>
    <rect x="60" y="1422" width="14" height="14" rx="3" fill="#fdf2f8" stroke="#be185d"/>
    <text x="82" y="1434" fill="#475569">Super-admin CECOPEL</text>
    <rect x="208" y="1422" width="14" height="14" rx="3" fill="#eef2ff" stroke="#4f46e5"/>
    <text x="230" y="1434" fill="#475569">Admin do escritório</text>
    <rect x="356" y="1422" width="14" height="14" rx="3" fill="#ecfdf5" stroke="#10b981"/>
    <text x="378" y="1434" fill="#475569">Colaborador</text>
    <rect x="468" y="1422" width="14" height="14" rx="3" fill="#fff7ed" stroke="#f97316"/>
    <text x="490" y="1434" fill="#475569">Cliente final</text>
    <rect x="572" y="1422" width="14" height="14" rx="3" fill="#fef3c7" stroke="#f59e0b" stroke-width="1.5"/>
    <text x="594" y="1434" fill="#475569">Robô Tauri (próprio)</text>
    <rect x="724" y="1422" width="14" height="14" rx="3" fill="#dbeafe" stroke="#2563eb"/>
    <text x="746" y="1434" fill="#475569">API Go</text>
    <rect x="828" y="1422" width="14" height="14" rx="3" fill="#0f172a"/>
    <text x="850" y="1434" fill="#475569">Dados (Supabase + RLS)</text>
  </g>
</svg>
